<svg width="172" height="60" viewBox="0 0 172 60" fill="none" xmlns="http://www.w3.org/2000/svg">
<path d="M78.9581 17.664C78.8741 17.5707 78.6968 17.4493 78.4261 17.3C78.1554 17.1413 77.8288 17.0013 77.4461 16.88C77.0728 16.7493 76.6854 16.684 76.2841 16.684C75.2294 16.684 74.7021 17.0573 74.7021 17.804C74.7021 18.0747 74.7861 18.2893 74.9541 18.448C75.1221 18.6067 75.3741 18.742 75.7101 18.854C76.0461 18.966 76.4661 19.0873 76.9701 19.218C77.6234 19.386 78.1881 19.582 78.6641 19.806C79.1494 20.03 79.5181 20.3287 79.7701 20.702C80.0314 21.066 80.1621 21.5513 80.1621 22.158C80.1621 22.8673 79.9894 23.4413 79.6441 23.88C79.3081 24.3093 78.8601 24.622 78.3001 24.818C77.7401 25.014 77.1334 25.112 76.4801 25.112C75.7334 25.112 74.9914 25 74.2541 24.776C73.5261 24.5427 72.8774 24.2253 72.3081 23.824L73.1621 22.158C73.2461 22.242 73.3954 22.354 73.6101 22.494C73.8248 22.6247 74.0861 22.76 74.3941 22.9C74.7021 23.0307 75.0381 23.1427 75.4021 23.236C75.7661 23.3293 76.1348 23.376 76.5081 23.376C77.5721 23.376 78.1041 23.0353 78.1041 22.354C78.1041 22.0647 77.9968 21.8313 77.7821 21.654C77.5674 21.4767 77.2641 21.3273 76.8721 21.206C76.4894 21.0847 76.0414 20.9493 75.5281 20.8C74.8934 20.6227 74.3661 20.4267 73.9461 20.212C73.5354 19.988 73.2274 19.7127 73.0221 19.386C72.8168 19.05 72.7141 18.6253 72.7141 18.112C72.7141 17.4307 72.8728 16.8613 73.1901 16.404C73.5168 15.9373 73.9554 15.5873 74.5061 15.354C75.0568 15.1113 75.6681 14.99 76.3401 14.99C77.0308 14.99 77.6748 15.102 78.2721 15.326C78.8694 15.55 79.3828 15.8067 79.8121 16.096L78.9581 17.664Z" fill="#26455E"/>
<path d="M89.056 16.754H85.878V25H83.96V16.754H80.782V15.06H89.056V16.754Z" fill="#26455E"/>
<path d="M97.192 23.306V25H90.29V15.06H97.066V16.754H92.222V19.148H96.408V20.716H92.222V23.306H97.192Z" fill="#26455E"/>
<path d="M102.1 15.088H103.892L105.026 18.378L106.174 15.088H107.952L106.244 19.61L107.504 22.774L110.318 15.06H112.418L108.442 25H106.776L105.026 20.828L103.29 25H101.624L97.6622 15.06H99.7342L102.562 22.774L103.794 19.61L102.1 15.088Z" fill="#26455E"/>
<path d="M115.318 15.06H117.278L120.932 25H118.944L118.02 22.522H114.548L113.638 25H111.65L115.318 15.06ZM117.67 21.164L116.298 17.062L114.87 21.164H117.67Z" fill="#26455E"/>
<path d="M122.022 25V15.06H126.418C126.876 15.06 127.296 15.1533 127.678 15.34C128.07 15.5267 128.406 15.7787 128.686 16.096C128.976 16.4133 129.195 16.768 129.344 17.16C129.503 17.552 129.582 17.9533 129.582 18.364C129.582 18.9987 129.419 19.582 129.092 20.114C128.775 20.646 128.341 21.0287 127.79 21.262L130.058 25H127.93L125.886 21.668H123.954V25H122.022ZM123.954 19.974H126.376C126.74 19.974 127.039 19.82 127.272 19.512C127.515 19.1947 127.636 18.812 127.636 18.364C127.636 18.056 127.571 17.7807 127.44 17.538C127.31 17.2953 127.142 17.104 126.936 16.964C126.74 16.824 126.526 16.754 126.292 16.754H123.954V19.974Z" fill="#26455E"/>
<path d="M131.333 25V15.06H134.945C136.028 15.06 136.933 15.284 137.661 15.732C138.389 16.1707 138.935 16.768 139.299 17.524C139.663 18.2707 139.845 19.1013 139.845 20.016C139.845 21.024 139.644 21.9013 139.243 22.648C138.842 23.3947 138.272 23.9733 137.535 24.384C136.798 24.7947 135.934 25 134.945 25H131.333ZM137.899 20.016C137.899 19.372 137.782 18.8073 137.549 18.322C137.316 17.8273 136.98 17.4447 136.541 17.174C136.102 16.894 135.57 16.754 134.945 16.754H133.265V23.306H134.945C135.58 23.306 136.116 23.166 136.555 22.886C136.994 22.5967 137.325 22.2047 137.549 21.71C137.782 21.206 137.899 20.6413 137.899 20.016Z" fill="#26455E"/>
<path d="M147.235 17.664C147.151 17.5707 146.974 17.4493 146.703 17.3C146.433 17.1413 146.106 17.0013 145.723 16.88C145.35 16.7493 144.963 16.684 144.561 16.684C143.507 16.684 142.979 17.0573 142.979 17.804C142.979 18.0747 143.063 18.2893 143.231 18.448C143.399 18.6067 143.651 18.742 143.987 18.854C144.323 18.966 144.743 19.0873 145.247 19.218C145.901 19.386 146.465 19.582 146.941 19.806C147.427 20.03 147.795 20.3287 148.047 20.702C148.309 21.066 148.439 21.5513 148.439 22.158C148.439 22.8673 148.267 23.4413 147.921 23.88C147.585 24.3093 147.137 24.622 146.577 24.818C146.017 25.014 145.411 25.112 144.757 25.112C144.011 25.112 143.269 25 142.531 24.776C141.803 24.5427 141.155 24.2253 140.585 23.824L141.439 22.158C141.523 22.242 141.673 22.354 141.887 22.494C142.102 22.6247 142.363 22.76 142.671 22.9C142.979 23.0307 143.315 23.1427 143.679 23.236C144.043 23.3293 144.412 23.376 144.785 23.376C145.849 23.376 146.381 23.0353 146.381 22.354C146.381 22.0647 146.274 21.8313 146.059 21.654C145.845 21.4767 145.541 21.3273 145.149 21.206C144.767 21.0847 144.319 20.9493 143.805 20.8C143.171 20.6227 142.643 20.4267 142.223 20.212C141.813 19.988 141.505 19.7127 141.299 19.386C141.094 19.05 140.991 18.6253 140.991 18.112C140.991 17.4307 141.15 16.8613 141.467 16.404C141.794 15.9373 142.233 15.5873 142.783 15.354C143.334 15.1113 143.945 14.99 144.617 14.99C145.308 14.99 145.952 15.102 146.549 15.326C147.147 15.55 147.66 15.8067 148.089 16.096L147.235 17.664Z" fill="#26455E"/>
<path d="M158.257 15.06V25H156.339V20.758H151.831V25H149.899V15.06H151.831V19.078H156.339V15.06H158.257Z" fill="#26455E"/>
<path d="M160.331 25V15.06H162.263V25H160.331Z" fill="#26455E"/>
<path d="M164.337 25V15.06H168.551C169.008 15.06 169.428 15.1533 169.811 15.34C170.203 15.5267 170.539 15.7787 170.819 16.096C171.099 16.4133 171.318 16.768 171.477 17.16C171.636 17.552 171.715 17.9533 171.715 18.364C171.715 18.924 171.584 19.456 171.323 19.96C171.062 20.464 170.698 20.8747 170.231 21.192C169.774 21.5093 169.237 21.668 168.621 21.668H166.269V25H164.337ZM166.269 19.974H168.509C168.864 19.974 169.158 19.8293 169.391 19.54C169.634 19.2413 169.755 18.8493 169.755 18.364C169.755 17.8507 169.62 17.454 169.349 17.174C169.078 16.894 168.77 16.754 168.425 16.754H166.269V19.974Z" fill="#26455E"/>
<path d="M81.1421 46V39.476L78.5941 44.334H77.5161L74.9681 39.476V46H73.0361V36.06H75.1081L78.0481 41.716L81.0161 36.06H83.0741V46H81.1421Z" fill="#26455E"/>
<path d="M87.8514 36.06H89.8114L93.4654 46H91.4774L90.5534 43.522H87.0814L86.1714 46H84.1834L87.8514 36.06ZM90.2034 42.164L88.8314 38.062L87.4034 42.164H90.2034Z" fill="#26455E"/>
<path d="M94.5556 46V36.06H98.7696C99.227 36.06 99.647 36.1533 100.03 36.34C100.422 36.5267 100.758 36.7787 101.038 37.096C101.318 37.4133 101.537 37.768 101.696 38.16C101.854 38.552 101.934 38.9533 101.934 39.364C101.934 39.924 101.803 40.456 101.542 40.96C101.28 41.464 100.916 41.8747 100.45 42.192C99.9923 42.5093 99.4556 42.668 98.8396 42.668H96.4876V46H94.5556ZM96.4876 40.974H98.7276C99.0823 40.974 99.3763 40.8293 99.6096 40.54C99.8523 40.2413 99.9736 39.8493 99.9736 39.364C99.9736 38.8507 99.8383 38.454 99.5676 38.174C99.297 37.894 98.989 37.754 98.6436 37.754H96.4876V40.974Z" fill="#26455E"/>
<path d="M103.278 46V36.06H107.492C107.95 36.06 108.37 36.1533 108.752 36.34C109.144 36.5267 109.48 36.7787 109.76 37.096C110.04 37.4133 110.26 37.768 110.418 38.16C110.577 38.552 110.656 38.9533 110.656 39.364C110.656 39.924 110.526 40.456 110.264 40.96C110.003 41.464 109.639 41.8747 109.172 42.192C108.715 42.5093 108.178 42.668 107.562 42.668H105.21V46H103.278ZM105.21 40.974H107.45C107.805 40.974 108.099 40.8293 108.332 40.54C108.575 40.2413 108.696 39.8493 108.696 39.364C108.696 38.8507 108.561 38.454 108.29 38.174C108.02 37.894 107.712 37.754 107.366 37.754H105.21V40.974Z" fill="#26455E"/>
<path d="M118.903 44.306V46H112.001V36.06H118.777V37.754H113.933V40.148H118.119V41.716H113.933V44.306H118.903Z" fill="#26455E"/>
<path d="M120.409 46V36.06H124.805C125.262 36.06 125.682 36.1533 126.065 36.34C126.457 36.5267 126.793 36.7787 127.073 37.096C127.362 37.4133 127.582 37.768 127.731 38.16C127.89 38.552 127.969 38.9533 127.969 39.364C127.969 39.9987 127.806 40.582 127.479 41.114C127.162 41.646 126.728 42.0287 126.177 42.262L128.445 46H126.317L124.273 42.668H122.341V46H120.409ZM122.341 40.974H124.763C125.127 40.974 125.426 40.82 125.659 40.512C125.902 40.1947 126.023 39.812 126.023 39.364C126.023 39.056 125.958 38.7807 125.827 38.538C125.696 38.2953 125.528 38.104 125.323 37.964C125.127 37.824 124.912 37.754 124.679 37.754H122.341V40.974Z" fill="#26455E"/>
<path d="M30.5662 60C22.5284 60 14.9435 56.8868 9.22656 51.1698L11.3209 49.0754C16.4718 54.2264 23.2643 57.0566 30.5662 57.0566C37.8115 57.0566 44.6605 54.2264 49.8115 49.0754L51.9058 51.1698C46.2454 56.8302 38.6605 60 30.5662 60Z" fill="#26455E"/>
<path d="M60.113 36.9623L57.2262 36.1698C59.0942 29.1509 58.1319 21.7925 54.5093 15.5094C50.8866 9.28302 44.9998 4.75472 37.981 2.88679L38.7734 0C46.5847 2.09434 53.0942 7.07547 57.113 14.0377C61.1319 21.0566 62.2074 29.2076 60.113 36.9623Z" fill="#26455E"/>
<path d="M1.01887 36.9623C-1.01887 29.2076 0 21.0566 4.07547 14.0377C8.09434 7.07547 14.6038 2.09434 22.3585 0L23.1509 2.88679C16.1321 4.75472 10.2453 9.28302 6.62264 15.566C3 21.8491 2.03774 29.2076 3.90566 36.2264L1.01887 36.9623Z" fill="#26455E"/>
<path d="M43.5282 33.7923H40.5281V20.0376H26.7734V17.0376H43.5282V33.7923Z" fill="#26455E"/>
<path d="M35.8866 42.9056H17.6602V24.6792H35.8866V42.9056ZM20.6036 39.9056H32.8866V27.6226H20.6036V39.9056Z" fill="#26455E"/>
</svg>
